<svg xmlns="http://www.w3.org/2000/svg" xmlns:xlink="http://www.w3.org/1999/xlink" width="192" zoomAndPan="magnify" viewBox="0 0 144 36.000001" height="48" preserveAspectRatio="xMidYMid meet" version="1.0"><defs><g/><clipPath id="d88e0a0b11"><path d="M 11.144531 17.550781 L 20.117188 17.550781 L 20.117188 22.164062 L 11.144531 22.164062 Z M 11.144531 17.550781 " clip-rule="nonzero"/></clipPath><clipPath id="021d635b8b"><path d="M 12.601562 17.550781 L 18.640625 17.550781 C 19.027344 17.550781 19.398438 17.707031 19.671875 17.980469 C 19.949219 18.253906 20.101562 18.625 20.101562 19.011719 L 20.101562 20.707031 C 20.101562 21.09375 19.949219 21.464844 19.671875 21.738281 C 19.398438 22.011719 19.027344 22.164062 18.640625 22.164062 L 12.601562 22.164062 C 12.214844 22.164062 11.84375 22.011719 11.570312 21.738281 C 11.296875 21.464844 11.144531 21.09375 11.144531 20.707031 L 11.144531 19.011719 C 11.144531 18.625 11.296875 18.253906 11.570312 17.980469 C 11.84375 17.707031 12.214844 17.550781 12.601562 17.550781 Z M 12.601562 17.550781 " clip-rule="nonzero"/></clipPath><clipPath id="6f636fa1a4"><path d="M 125.996094 19.859375 L 132.855469 19.859375 L 132.855469 26.71875 L 125.996094 26.71875 Z M 125.996094 19.859375 " clip-rule="nonzero"/></clipPath><clipPath id="5133acd3f6"><path d="M 129.425781 19.859375 C 127.53125 19.859375 125.996094 21.394531 125.996094 23.289062 C 125.996094 25.183594 127.53125 26.71875 129.425781 26.71875 C 131.320312 26.71875 132.855469 25.183594 132.855469 23.289062 C 132.855469 21.394531 131.320312 19.859375 129.425781 19.859375 Z M 129.425781 19.859375 " clip-rule="nonzero"/></clipPath><clipPath id="bc478ca8b2"><path d="M 63.097656 13.421875 L 82.070312 13.421875 L 82.070312 33.125 L 63.097656 33.125 Z M 63.097656 13.421875 " clip-rule="nonzero"/></clipPath></defs><g clip-path="url(#d88e0a0b11)"><g clip-path="url(#021d635b8b)"><path fill="#ffffff" d="M 11.144531 17.550781 L 20.097656 17.550781 L 20.097656 22.164062 L 11.144531 22.164062 Z M 11.144531 17.550781 " fill-opacity="1" fill-rule="nonzero"/></g></g><g clip-path="url(#6f636fa1a4)"><g clip-path="url(#5133acd3f6)"><path fill="#ffffff" d="M 125.996094 19.859375 L 132.855469 19.859375 L 132.855469 26.71875 L 125.996094 26.71875 Z M 125.996094 19.859375 " fill-opacity="1" fill-rule="nonzero"/></g></g><g fill="#9f0dcc" fill-opacity="1"><g transform="translate(28.468641, 25.828407)"><g><path d="M 14.453125 0 L 12.3125 -7.640625 L 12.21875 -7.640625 L 10.0625 0 L 5.015625 0 L 0 -13.71875 L 5.5625 -13.71875 L 7.640625 -5.609375 L 7.828125 -5.609375 L 9.984375 -13.71875 L 15.125 -13.71875 L 17.203125 -5.609375 L 17.390625 -5.609375 L 19.484375 -13.71875 L 24.53125 -13.71875 L 19.484375 0 Z M 14.453125 0 "/></g></g></g><g fill="#9f0dcc" fill-opacity="1"><g transform="translate(50.345943, 25.828407)"><g><path d="M 6.75 -12.453125 C 7.738281 -13.503906 9.023438 -14.03125 10.609375 -14.03125 C 12.453125 -14.03125 13.875 -13.425781 14.875 -12.21875 C 15.882812 -11.019531 16.390625 -9.242188 16.390625 -6.890625 C 16.390625 -4.515625 15.882812 -2.71875 14.875 -1.5 C 13.875 -0.289062 12.453125 0.3125 10.609375 0.3125 C 8.703125 0.3125 7.242188 -0.441406 6.234375 -1.953125 L 5.796875 0 L 1.578125 0 L 1.578125 -18.84375 L 6.75 -18.84375 Z M 8.984375 -10.21875 C 8.222656 -10.21875 7.648438 -9.941406 7.265625 -9.390625 C 6.890625 -8.847656 6.703125 -8.144531 6.703125 -7.28125 L 6.703125 -6.421875 C 6.703125 -5.554688 6.890625 -4.851562 7.265625 -4.3125 C 7.648438 -3.78125 8.222656 -3.515625 8.984375 -3.515625 C 10.472656 -3.515625 11.21875 -4.394531 11.21875 -6.15625 L 11.21875 -7.53125 C 11.21875 -9.320312 10.472656 -10.21875 8.984375 -10.21875 Z M 8.984375 -10.21875 "/></g></g></g><g fill="#9f0dcc" fill-opacity="1"><g transform="translate(65.025677, 25.828407)"><g><path d="M 1.734375 0 L 1.734375 -18.84375 L 6.90625 -18.84375 L 6.90625 0 Z M 1.734375 0 "/></g></g></g><g fill="#9f0dcc" fill-opacity="1"><g transform="translate(71.026764, 25.828407)"><g><path d="M 8.34375 -14.03125 C 10.4375 -14.03125 12.140625 -13.675781 13.453125 -12.96875 C 14.773438 -12.269531 15.4375 -11.132812 15.4375 -9.5625 L 15.4375 -4.203125 C 15.4375 -3.910156 15.503906 -3.671875 15.640625 -3.484375 C 15.773438 -3.296875 15.984375 -3.203125 16.265625 -3.203125 L 17.203125 -3.203125 L 17.203125 -0.203125 C 17.148438 -0.171875 17.015625 -0.113281 16.796875 -0.03125 C 16.578125 0.0390625 16.269531 0.113281 15.875 0.1875 C 15.476562 0.269531 15.019531 0.3125 14.5 0.3125 C 13.488281 0.3125 12.660156 0.160156 12.015625 -0.140625 C 11.367188 -0.441406 10.921875 -0.863281 10.671875 -1.40625 C 10.015625 -0.882812 9.28125 -0.46875 8.46875 -0.15625 C 7.65625 0.15625 6.703125 0.3125 5.609375 0.3125 C 2.390625 0.3125 0.78125 -0.96875 0.78125 -3.53125 C 0.78125 -4.863281 1.140625 -5.878906 1.859375 -6.578125 C 2.578125 -7.285156 3.609375 -7.769531 4.953125 -8.03125 C 6.304688 -8.289062 8.078125 -8.421875 10.265625 -8.421875 L 10.265625 -9.09375 C 10.265625 -9.632812 10.078125 -10.039062 9.703125 -10.3125 C 9.328125 -10.59375 8.847656 -10.734375 8.265625 -10.734375 C 7.722656 -10.734375 7.253906 -10.632812 6.859375 -10.4375 C 6.472656 -10.25 6.28125 -9.945312 6.28125 -9.53125 L 6.28125 -9.4375 L 1.1875 -9.4375 C 1.175781 -9.519531 1.171875 -9.640625 1.171875 -9.796875 C 1.171875 -11.097656 1.789062 -12.128906 3.03125 -12.890625 C 4.269531 -13.648438 6.039062 -14.03125 8.34375 -14.03125 Z M 10.265625 -5.96875 C 8.796875 -5.96875 7.707031 -5.804688 7 -5.484375 C 6.300781 -5.171875 5.953125 -4.742188 5.953125 -4.203125 C 5.953125 -3.335938 6.539062 -2.90625 7.71875 -2.90625 C 8.394531 -2.90625 8.988281 -3.085938 9.5 -3.453125 C 10.007812 -3.816406 10.265625 -4.269531 10.265625 -4.8125 Z M 10.265625 -5.96875 "/></g></g></g><g fill="#9f0dcc" fill-opacity="1"><g transform="translate(85.706498, 25.828407)"><g><path d="M 11.53125 0 L 11.09375 -1.953125 C 10.09375 -0.441406 8.640625 0.3125 6.734375 0.3125 C 4.878906 0.3125 3.445312 -0.289062 2.4375 -1.5 C 1.4375 -2.71875 0.9375 -4.515625 0.9375 -6.890625 C 0.9375 -9.242188 1.4375 -11.019531 2.4375 -12.21875 C 3.445312 -13.425781 4.878906 -14.03125 6.734375 -14.03125 C 8.304688 -14.03125 9.585938 -13.503906 10.578125 -12.453125 L 10.578125 -18.84375 L 15.75 -18.84375 L 15.75 0 Z M 8.34375 -10.21875 C 6.851562 -10.21875 6.109375 -9.320312 6.109375 -7.53125 L 6.109375 -6.15625 C 6.109375 -4.394531 6.851562 -3.515625 8.34375 -3.515625 C 9.101562 -3.515625 9.671875 -3.78125 10.046875 -4.3125 C 10.429688 -4.851562 10.625 -5.554688 10.625 -6.421875 L 10.625 -7.28125 C 10.625 -8.144531 10.429688 -8.847656 10.046875 -9.390625 C 9.671875 -9.941406 9.101562 -10.21875 8.34375 -10.21875 Z M 8.34375 -10.21875 "/></g></g></g><g fill="#9f0dcc" fill-opacity="1"><g transform="translate(100.386229, 25.828407)"><g><path d="M 8.65625 -14.03125 C 11.164062 -14.03125 13.082031 -13.441406 14.40625 -12.265625 C 15.726562 -11.085938 16.390625 -9.285156 16.390625 -6.859375 L 16.390625 -5.96875 L 6.109375 -5.96875 C 6.109375 -4.988281 6.328125 -4.242188 6.765625 -3.734375 C 7.210938 -3.234375 7.910156 -2.984375 8.859375 -2.984375 C 9.722656 -2.984375 10.359375 -3.164062 10.765625 -3.53125 C 11.171875 -3.894531 11.375 -4.378906 11.375 -4.984375 L 16.390625 -4.984375 C 16.390625 -3.328125 15.757812 -2.03125 14.5 -1.09375 C 13.238281 -0.15625 11.394531 0.3125 8.96875 0.3125 C 6.414062 0.3125 4.4375 -0.28125 3.03125 -1.46875 C 1.632812 -2.65625 0.9375 -4.453125 0.9375 -6.859375 C 0.9375 -9.210938 1.617188 -10.992188 2.984375 -12.203125 C 4.359375 -13.421875 6.25 -14.03125 8.65625 -14.03125 Z M 8.859375 -10.734375 C 7.234375 -10.734375 6.320312 -9.960938 6.125 -8.421875 L 11.171875 -8.421875 C 11.171875 -9.128906 10.96875 -9.691406 10.5625 -10.109375 C 10.15625 -10.523438 9.585938 -10.734375 8.859375 -10.734375 Z M 8.859375 -10.734375 "/></g></g></g><g clip-path="url(#bc478ca8b2)"><path fill="#000000" d="M 82.070312 23.121094 L 79.273438 23.121094 C 74.480469 22.070312 73.414062 20.992188 72.378906 16.144531 L 72.378906 13.425781 L 72.023438 13.425781 L 72.023438 16.171875 C 70.992188 20.996094 69.917969 22.074219 65.136719 23.121094 L 63.097656 23.121094 L 63.097656 23.476562 L 65.136719 23.476562 C 69.917969 24.523438 70.992188 25.601562 72.023438 30.425781 L 72.023438 33.121094 L 72.378906 33.121094 L 72.378906 30.457031 C 73.414062 25.605469 74.480469 24.527344 79.273438 23.476562 L 82.070312 23.476562 Z M 82.070312 23.121094 " fill-opacity="1" fill-rule="nonzero"/></g></svg>